# xmcd
#
# Track frame offsets: 
#        150
#        18454
#        27530
#        37995
#        52307
#        65711
#        80421
#        91595
#        105365
#        115207
#        130529
#        146148
#        158852
#        172413
#        186301
#        194850
#
# Disc length: 2730 seconds
#
# Revision: 2
# Processed by: cddbd v1.5.2PL0 Copyright (c) Steve Scherf et al.
# Submitted via: ExactAudioCopyFreeDBPlugin 1.0
#
DISCID=e90aa810
DTITLE=Various Artist - Straight To You: The Gothic Country and Blues that Insi
DTITLE=pired Nick Cave (Uncut Magazine)
DYEAR=2010
DGENRE=Blues
TTITLE0=Ella Jenkins - Wade in the Water
TTITLE1=Hank Williams - Alone and Forsaken
TTITLE2=Gene Vincent - Cat Man
TTITLE3=Memphis Slim - Grinder Man Blues
TTITLE4=Elvis Presley - Tomorrow Night
TTITLE5=Peg Leg Howell - New Prison Blues
TTITLE6=Johnny Cash - I'd Rather Die Young
TTITLE7=John Lee Hooker - I'm Gonna Kill That Woman
TTITLE8=Odetta - Another Man Done Gone
TTITLE9=Blind Willie Johnson - I'm Gonna Run To The City Of Refuge
TTITLE10=Dick Justice - Henry Lee
TTITLE11=Hobart Smith and Texas Gladden - Down In The Willow Garden
TTITLE12=Frank Hutchison - Stackalee
TTITLE13=Victoria Spivey - Murder In The First Degree
TTITLE14=Leadbelly - Black Betty
TTITLE15=The Alabama Singers - Jesus Met The Woman At The Well
EXTD=
EXTT0=
EXTT1=
EXTT2=
EXTT3=
EXTT4=
EXTT5=
EXTT6=
EXTT7=
EXTT8=
EXTT9=
EXTT10=
EXTT11=
EXTT12=
EXTT13=
EXTT14=
EXTT15=
PLAYORDER=
